<svg id="eVsGw8dRAP51" xmlns="http://www.w3.org/2000/svg" xmlns:xlink="http://www.w3.org/1999/xlink" viewBox="0 0 300 300" shape-rendering="geometricPrecision" text-rendering="geometricPrecision"><polygon points="0,-10.308428 8.927361,5.154214 -8.927361,5.154214 0,-10.308428" transform="matrix(0 10.237599-4.177646 0 177.363728 150.835437)" fill="#d2dbed" stroke-width="0"/><polygon points="0,-10.308428 8.927361,5.154214 -8.927361,5.154214 0,-10.308428" transform="matrix(0 5.572288-4.831767 0 245.880868 112.835895)" fill="#d2dbed" stroke-width="0"/><polygon points="0,-10.308428 8.927361,5.154214 -8.927361,5.154214 0,-10.308428" transform="matrix(5.81757 0 0 11.713303 51.935548 180.186436)" fill="#d2dbed" stroke-width="0"/><polygon points="0,-10.308428 8.927361,5.154214 -8.927361,5.154214 0,-10.308428" transform="matrix(5.818948 0 0 11.716077 103.883397 180.215031)" fill="#d2dbed" stroke-width="0"/><polygon points="0,-10.308428 8.927361,5.154214 -8.927361,5.154214 0,-10.308428" transform="matrix(0 5.572289-4.831767 0 245.880868 200.372103)" fill="#d2dbed" stroke-width="0"/><polygon points="0,-10.308428 8.927361,5.154214 -8.927361,5.154214 0,-10.308428" transform="matrix(0 4.162944-3.932782 0 242.061961 202.007845)" fill="#6a59ff" stroke-width="0"/><polygon points="0,-10.308428 8.927361,5.154214 -8.927361,5.154214 0,-10.308428" transform="matrix(0 4.162944-3.932782 0 242.061961 114.471637)" fill="#6a59ff" stroke-width="0"/><polygon points="0,-10.308428 8.927361,5.154214 -8.927361,5.154214 0,-10.308428" transform="matrix(0 8.4666-3.45483 0 174.452833 152.101622)" fill="#6a59ff" stroke-width="0"/><polygon points="0,-10.308428 8.927361,5.154214 -8.927361,5.154214 0,-10.308428" transform="matrix(4.18509 0 0 9.572633 104.69805 192.89078)" fill="#6a59ff" stroke-width="0"/><polygon points="0,-10.308428 8.927361,5.154214 -8.927361,5.154214 0,-10.308428" transform="matrix(4.184099 0 0 9.570361 52.750201 192.867359)" fill="#6a59ff" stroke-width="0"/></svg>
